<svg width="1413" height="1157" viewBox="0 0 1413 1157" fill="none" xmlns="http://www.w3.org/2000/svg">
<g filter="url(#filter0_d_1_3)">
<path d="M681 656.46C653.813 599.559 556.394 565.111 511.083 555C488.93 573.409 495.979 604.51 502.272 617.759C526.438 650.394 566.883 662.736 584.084 664.828C624.361 669.012 665.477 660.993 681 656.46Z" stroke="white" stroke-width="20"/>
<path d="M735 656.46C761.893 599.559 858.259 565.111 903.08 555C924.993 573.409 918.021 604.51 911.796 617.759C887.891 650.394 847.884 662.736 830.868 664.828C791.027 669.012 750.355 660.993 735 656.46Z" stroke="url(#paint0_linear_1_3)" stroke-width="20"/>
<path d="M224 919.3C373.5 958.438 508.702 981.408 557.615 988C557.615 906.392 522.498 845.048 504.939 824.576C410.624 705.496 390.39 653.519 392.062 642.416C385.038 600.78 409.203 565.389 422.163 552.898C536.545 417.995 657.951 406.408 719.406 407.17C853.856 408.835 956.867 505.016 991.566 552.898C1025.68 577.88 1028.36 622.986 1025.43 642.416C1025.43 679.057 950.178 779.123 912.552 824.576C866.398 876.206 858.204 955.038 859.876 988C921.081 979.673 1109.46 938.73 1196 919.3C1164.9 859.343 1091.07 808.269 1058.04 790.226C1024.09 803.173 970.76 838.584 942.389 858.872C941.418 859.566 940.268 858.239 941.055 857.342C991.367 799.976 1005.68 790.738 1046.75 749.631C1089.39 706.953 1116.99 677.807 1122 635.13C1126.02 600.988 1108.62 566.083 1096.92 552.898C1072.84 523.752 1054.28 490.443 1046.75 478.993C984.543 233.337 798.839 139.308 708.119 123C470.324 187.12 382.446 387.045 368.232 478.993C324.335 558.102 300.506 585.166 299.252 635.13C298.248 675.101 348.165 728.118 373.249 749.631C396.57 766.663 448.44 824.605 476.445 857.202C477.224 858.109 476.002 859.356 475.041 858.646C420.303 818.152 377.175 797.625 361.961 792.308C280.69 833.112 236.124 893.971 224 919.3Z" stroke="white" stroke-width="30"/>
<path d="M563.84 1045.22C507.235 1037.23 316.184 1003.53 143.236 956.442C157.353 926.236 233.429 816.616 327.647 768.106C298.677 742.364 229.974 665.112 231.264 617.399C232.876 557.757 260.55 525.508 311.622 431.179C328.372 321.451 435.205 104.16 710.702 28.2017C815.675 47.8924 1025.9 139.444 1097.13 432.85C1105.81 446.537 1127.19 486.346 1154.97 521.198C1168.48 536.966 1188.51 578.677 1183.75 619.424C1177.81 670.359 1141.3 717.192 1091.79 768.033C1129.97 789.653 1232.69 887.186 1268.51 958.836C1168.26 981.818 926.864 1035.55 855.981 1045.34" stroke="white" stroke-width="30"/>
<path d="M572 1051L701.139 1125.43C706.055 1128.26 712.105 1128.28 717.037 1125.47L848 1051" stroke="white" stroke-width="30" stroke-linecap="square"/>
<path d="M572 1051L701.139 1125.43C706.055 1128.26 712.105 1128.28 717.037 1125.47L848 1051" stroke="white" stroke-opacity="0.2" stroke-width="30" stroke-linecap="square"/>
<path d="M710 187.215V164L795 233.645L710 302V279.752L766.543 233.645L710 187.215Z" stroke="url(#paint1_linear_1_3)" stroke-width="5"/>
<path d="M710 257.047V234L624 303.14L710 371V348.914L652.791 303.14L710 257.047Z" stroke="url(#paint2_linear_1_3)" stroke-width="5"/>
</g>
<defs>
<filter id="filter0_d_1_3" x="-4" y="0" width="1421" height="1165" filterUnits="userSpaceOnUse" color-interpolation-filters="sRGB">
<feFlood flood-opacity="0" result="BackgroundImageFix"/>
<feColorMatrix in="SourceAlpha" type="matrix" values="0 0 0 0 0 0 0 0 0 0 0 0 0 0 0 0 0 0 127 0" result="hardAlpha"/>
<feOffset dy="4"/>
<feGaussianBlur stdDeviation="2"/>
<feComposite in2="hardAlpha" operator="out"/>
<feColorMatrix type="matrix" values="0 0 0 0 0 0 0 0 0 0 0 0 0 0 0 0 0 0 0.25 0"/>
<feBlend mode="normal" in2="BackgroundImageFix" result="effect1_dropShadow_1_3"/>
<feBlend mode="normal" in="SourceGraphic" in2="effect1_dropShadow_1_3" result="shape"/>
</filter>
<linearGradient id="paint0_linear_1_3" x1="826.5" y1="555" x2="826.5" y2="666" gradientUnits="userSpaceOnUse">
<stop stop-color="white"/>
<stop offset="1" stop-color="white"/>
</linearGradient>
<linearGradient id="paint1_linear_1_3" x1="752.5" y1="164" x2="752.5" y2="302" gradientUnits="userSpaceOnUse">
<stop stop-color="#00D1FF"/>
<stop offset="1" stop-color="white" stop-opacity="0.22"/>
</linearGradient>
<linearGradient id="paint2_linear_1_3" x1="667" y1="234" x2="667" y2="371" gradientUnits="userSpaceOnUse">
<stop stop-color="white" stop-opacity="0.1"/>
<stop offset="1" stop-color="#00D1FF"/>
</linearGradient>
</defs>
</svg>
