<svg width="1421" height="1165" viewBox="0 0 1421 1165" fill="none" xmlns="http://www.w3.org/2000/svg">
<g filter="url(#filter0_d_4_19)">
<rect width="1413" height="1157" transform="translate(4)" fill="white"/>
<path d="M685 646.773C656.785 585.77 555.679 548.84 508.653 538C485.663 557.736 492.978 591.078 499.509 605.282C524.59 640.269 566.565 653.501 584.417 655.744C626.218 660.229 668.889 651.632 685 646.773Z" stroke="black" stroke-width="10"/>
<path d="M739 646.773C767.069 585.77 867.647 548.84 914.428 538C937.299 557.736 930.022 591.078 923.524 605.282C898.575 640.269 856.818 653.501 839.059 655.744C797.476 660.229 755.027 651.632 739 646.773Z" stroke="black" stroke-width="10"/>
<path d="M212 928.534C366.422 970.388 506.075 994.95 556.599 1002C556.599 914.732 520.325 849.132 502.188 827.241C404.768 699.9 383.868 644.318 385.595 632.445C378.34 587.921 403.3 550.075 416.686 536.717C534.835 392.457 660.237 380.067 723.716 380.881C862.592 382.662 968.994 485.514 1004.84 536.717C1040.07 563.432 1042.84 611.667 1039.81 632.445C1039.81 671.627 962.085 778.635 923.221 827.241C875.547 882.451 867.083 966.751 868.81 1002C932.03 993.095 1126.61 949.312 1216 928.534C1183.87 864.419 1107.61 809.802 1073.5 790.508C1038.29 804.408 982.906 842.522 953.69 864.174C952.732 864.884 951.56 863.58 952.33 862.67C1004.57 800.976 1019.32 791.148 1061.84 747.096C1105.88 701.458 1134.38 670.291 1139.57 624.653C1143.71 588.143 1125.75 550.817 1113.66 536.717C1088.78 505.55 1069.61 469.93 1061.84 457.686C997.581 194.99 805.763 94.4388 712.057 77C466.433 145.568 375.663 359.361 360.981 457.686C315.639 542.283 291.025 571.224 289.729 624.653C288.693 667.397 340.253 724.092 366.163 747.096C390.34 765.377 444.223 827.727 473.074 862.513C473.837 863.433 472.599 864.665 471.651 863.938C414.947 820.461 370.25 798.431 354.503 792.734C270.556 836.368 224.523 901.448 212 928.534Z" stroke="black" stroke-width="10"/>
<path d="M567.242 1041.53C510.178 1033.55 317.579 999.927 143.228 952.947C157.455 922.823 234.134 813.505 329.107 765.134C299.9 739.458 230.633 662.407 231.928 614.822C233.546 555.341 261.44 523.181 312.914 429.11C329.787 319.678 437.457 102.981 715.173 27.2522C820.996 46.9001 1032.93 138.226 1104.77 430.851C1113.52 444.502 1135.08 484.206 1163.09 518.967C1176.71 534.694 1196.9 576.296 1192.11 616.933C1186.13 667.73 1149.33 714.434 1099.43 765.134C1137.92 786.699 1241.48 883.98 1277.59 955.441C1176.54 978.352 944.48 1030.11 873.026 1039.87" stroke="black" stroke-width="10"/>
<path d="M562 1039.68L709.926 1127.17C714.964 1130.15 721.226 1130.14 726.255 1127.14L876 1038" stroke="black" stroke-width="10"/>
<path d="M562 1039.68L709.926 1127.17C714.964 1130.15 721.226 1130.14 726.255 1127.14L876 1038" stroke="black" stroke-opacity="0.2" stroke-width="10"/>
<path d="M715 142.897V118L804 192.692L715 266V242.14L774.204 192.692L715 142.897Z" stroke="black" stroke-width="5"/>
<path d="M715 216.561V192L627 265.682L715 338V314.463L656.461 265.682L715 216.561Z" stroke="black" stroke-width="5"/>
<path d="M715 142.897V118L804 192.692L715 266V242.14L774.204 192.692L715 142.897Z" stroke="url(#paint0_linear_4_19)" stroke-width="5"/>
<path d="M715 216.561V192L627 265.682L715 338V314.463L656.461 265.682L715 216.561Z" stroke="url(#paint1_linear_4_19)" stroke-width="5"/>
</g>
<defs>
<filter id="filter0_d_4_19" x="0" y="0" width="1421" height="1165" filterUnits="userSpaceOnUse" color-interpolation-filters="sRGB">
<feFlood flood-opacity="0" result="BackgroundImageFix"/>
<feColorMatrix in="SourceAlpha" type="matrix" values="0 0 0 0 0 0 0 0 0 0 0 0 0 0 0 0 0 0 127 0" result="hardAlpha"/>
<feOffset dy="4"/>
<feGaussianBlur stdDeviation="2"/>
<feComposite in2="hardAlpha" operator="out"/>
<feColorMatrix type="matrix" values="0 0 0 0 0 0 0 0 0 0 0 0 0 0 0 0 0 0 0.25 0"/>
<feBlend mode="normal" in2="BackgroundImageFix" result="effect1_dropShadow_4_19"/>
<feBlend mode="normal" in="SourceGraphic" in2="effect1_dropShadow_4_19" result="shape"/>
</filter>
<linearGradient id="paint0_linear_4_19" x1="759.5" y1="118" x2="759.5" y2="266" gradientUnits="userSpaceOnUse">
<stop stop-color="#00D1FF"/>
<stop offset="1" stop-color="white" stop-opacity="0.22"/>
</linearGradient>
<linearGradient id="paint1_linear_4_19" x1="671" y1="192" x2="671" y2="338" gradientUnits="userSpaceOnUse">
<stop stop-color="white" stop-opacity="0.1"/>
<stop offset="1" stop-color="#00D1FF"/>
</linearGradient>
</defs>
</svg>
