<svg width="1413" height="1157" viewBox="0 0 1413 1157" fill="none" xmlns="http://www.w3.org/2000/svg">
<g clip-path="url(#clip0_4_19)" filter="url(#filter0_d_4_19)">
<path d="M682 666.687C653.785 605.172 552.679 567.931 505.653 557C482.663 576.902 489.978 610.524 496.509 624.847C521.59 660.128 563.565 673.471 581.417 675.733C623.218 680.256 665.889 671.587 682 666.687Z" stroke="black" stroke-width="20"/>
<path d="M736 666.687C764.069 605.172 864.647 567.931 911.428 557C934.299 576.902 927.022 610.524 920.524 624.847C895.575 660.128 853.818 673.471 836.059 675.733C794.476 680.256 752.027 671.587 736 666.687Z" stroke="black" stroke-width="20"/>
<path d="M559 1038.7L706.862 1127.08C711.932 1130.11 718.258 1130.1 723.319 1127.05L873 1037" stroke="black" stroke-width="30"/>
<path d="M559 1038.7L706.862 1127.08C711.932 1130.11 718.258 1130.1 723.319 1127.05L873 1037" stroke="black" stroke-opacity="0.2" stroke-width="30"/>
<path d="M705 173.897V149L794 223.692L705 297V273.14L764.204 223.692L705 173.897Z" stroke="black" stroke-width="5"/>
<path d="M705 247.897V223L617 297.692L705 371V347.14L646.461 297.692L705 247.897Z" stroke="black" stroke-width="5"/>
<path d="M706 173.897V149L795 223.692L706 297V273.14L765.204 223.692L706 173.897Z" stroke="url(#paint0_linear_4_19)" stroke-width="5"/>
<path d="M706 247.897V223L618 297.692L706 371V347.14L647.461 297.692L706 247.897Z" stroke="url(#paint1_linear_4_19)" stroke-width="5"/>
<path d="M224 914.664C373.807 954.165 509.288 977.347 558.302 984C558.302 901.638 523.112 839.726 505.517 819.065C411.008 698.883 390.732 646.426 392.408 635.22C385.37 593.199 409.584 557.48 422.57 544.874C537.188 408.723 658.844 397.03 720.426 397.798C855.152 399.479 958.375 496.549 993.146 544.874C1027.33 570.087 1030.01 615.61 1027.08 635.22C1027.08 672.199 951.672 773.191 913.969 819.065C867.72 871.172 859.509 950.733 861.185 984C922.515 975.596 1111.28 934.274 1198 914.664C1166.83 854.153 1092.85 802.607 1059.75 784.397C1025.72 797.47 972.25 833.233 943.829 853.705C942.861 854.403 941.707 853.079 942.49 852.179C992.938 794.242 1007.27 784.924 1048.44 743.426C1091.17 700.354 1118.82 670.939 1123.85 627.866C1127.87 593.409 1110.44 558.181 1098.71 544.874C1074.58 515.458 1055.98 481.841 1048.44 470.285C986.108 222.357 800.021 127.458 709.115 111C470.83 175.713 382.772 377.487 368.529 470.285C324.542 550.126 300.663 577.44 299.406 627.866C298.401 668.207 348.421 721.715 373.556 743.426C396.936 760.624 448.949 819.147 477.003 852.038C477.779 852.947 476.552 854.191 475.594 853.477C420.726 812.591 377.494 791.865 362.245 786.498C280.806 827.679 236.149 889.101 224 914.664Z" stroke="black" stroke-width="30"/>
<path d="M566.618 1041.28C509.912 1033.21 316.491 1000.03 143.236 952.434C157.378 921.903 233.589 811.105 327.974 762.073C298.953 736.055 230.129 657.972 231.42 609.746C233.035 549.463 260.758 516.867 311.921 421.524C328.701 310.617 435.723 90.9896 711.708 14.2146C816.867 34.117 1027.47 126.653 1098.82 423.213C1107.51 437.047 1128.94 477.284 1156.77 512.51C1170.3 528.448 1190.36 570.608 1185.6 611.793C1179.64 663.275 1143.07 710.612 1093.48 762C1131.72 783.852 1234.62 882.433 1270.5 954.854C1170.08 978.083 937.799 1028.77 866.791 1038.66" stroke="black" stroke-width="30"/>
</g>
<defs>
<filter id="filter0_d_4_19" x="-4" y="0" width="1421" height="1165" filterUnits="userSpaceOnUse" color-interpolation-filters="sRGB">
<feFlood flood-opacity="0" result="BackgroundImageFix"/>
<feColorMatrix in="SourceAlpha" type="matrix" values="0 0 0 0 0 0 0 0 0 0 0 0 0 0 0 0 0 0 127 0" result="hardAlpha"/>
<feOffset dy="4"/>
<feGaussianBlur stdDeviation="2"/>
<feComposite in2="hardAlpha" operator="out"/>
<feColorMatrix type="matrix" values="0 0 0 0 0 0 0 0 0 0 0 0 0 0 0 0 0 0 0.25 0"/>
<feBlend mode="normal" in2="BackgroundImageFix" result="effect1_dropShadow_4_19"/>
<feBlend mode="normal" in="SourceGraphic" in2="effect1_dropShadow_4_19" result="shape"/>
</filter>
<linearGradient id="paint0_linear_4_19" x1="750.5" y1="149" x2="750.5" y2="297" gradientUnits="userSpaceOnUse">
<stop stop-color="#00D1FF"/>
<stop offset="1" stop-color="white" stop-opacity="0.22"/>
</linearGradient>
<linearGradient id="paint1_linear_4_19" x1="662" y1="223" x2="662" y2="371" gradientUnits="userSpaceOnUse">
<stop stop-color="white" stop-opacity="0.1"/>
<stop offset="1" stop-color="#00D1FF"/>
</linearGradient>
<clipPath id="clip0_4_19">
<rect width="1413" height="1157" fill="white"/>
</clipPath>
</defs>
</svg>
